<svg width="594" height="431" viewBox="0 0 594 431" fill="none" xmlns="http://www.w3.org/2000/svg">
<g clip-path="url(#clip0_24_4)">
<path d="M572.5 431.293H21.5C21.5 431.293 -43 351 51.5001 256.5C91.3321 213.777 144.759 242 172.797 177.437C246.204 8.40233 364.211 -16.1641 458.957 8.40233C514.657 23.6301 646.122 129.527 572.5 431.293Z" fill="url(#paint0_linear_24_4)"/>
<path fill-rule="evenodd" clip-rule="evenodd" d="M51.6055 323.953H107.484C108.52 323.953 109.355 324.789 109.355 325.816V330.047H105.215L101.465 371.277H57.625L53.875 330.047H49.7383V325.816C49.7383 324.789 50.5742 323.953 51.6055 323.953ZM476.43 39.7266H466.488C465.699 39.7266 465.062 39.0898 465.062 38.3008V36.5586H477.859V38.3008C477.859 39.0898 477.219 39.7266 476.43 39.7266ZM440.84 263.008C441.109 262.738 441.43 262.602 441.812 262.602C442.191 262.602 442.516 262.734 442.781 263C443.047 263.266 443.18 263.586 443.18 263.965V271.043C443.18 271.422 443.047 271.742 442.781 272.008C442.516 272.281 442.191 272.41 441.812 272.41H430.77C430.391 272.41 430.062 272.27 429.797 271.996C429.531 271.719 429.402 271.391 429.402 271.012C429.402 270.641 429.531 270.328 429.797 270.066C430.062 269.805 430.391 269.672 430.77 269.672H434.969V253.523H430.836C430.457 253.523 430.129 253.387 429.863 253.121C429.598 252.855 429.469 252.531 429.469 252.152C429.469 251.773 429.598 251.453 429.863 251.18C430.129 250.914 430.457 250.785 430.836 250.785H437.711V269.672H440.445V263.965C440.445 263.598 440.574 263.277 440.84 263.008ZM412.023 253.523H420.363V269.672H412.023V253.523ZM423.066 253.391C423.066 252.672 422.805 252.055 422.293 251.535C421.773 251.012 421.164 250.75 420.457 250.75H411.922C411.203 250.75 410.586 251.012 410.066 251.535C409.547 252.055 409.285 252.672 409.285 253.391V269.773C409.285 270.5 409.539 271.121 410.051 271.633C410.562 272.152 411.188 272.41 411.922 272.41H420.426C421.156 272.41 421.773 272.152 422.293 271.633C422.805 271.121 423.066 270.5 423.066 269.773V253.391ZM476.242 186.848H484.582V202.996H476.242V186.848ZM487.285 186.715C487.285 185.996 487.027 185.375 486.512 184.859C485.996 184.336 485.387 184.074 484.68 184.074H476.145C475.426 184.074 474.809 184.336 474.289 184.859C473.77 185.375 473.508 185.996 473.508 186.715V203.098C473.508 203.824 473.762 204.445 474.273 204.957C474.781 205.477 475.406 205.734 476.145 205.734H484.645C485.375 205.734 485.996 205.477 486.512 204.957C487.027 204.445 487.285 203.824 487.285 203.098V186.715ZM464.766 196.332C465.031 196.062 465.359 195.926 465.738 195.926C466.117 195.926 466.441 196.055 466.707 196.324C466.973 196.59 467.105 196.91 467.105 197.289V204.363C467.105 204.746 466.973 205.066 466.707 205.332C466.441 205.602 466.117 205.734 465.738 205.734H454.695C454.316 205.734 453.988 205.594 453.723 205.32C453.461 205.039 453.328 204.715 453.328 204.336C453.328 203.965 453.461 203.648 453.723 203.387C453.988 203.129 454.316 202.996 454.695 202.996H458.898V186.848H454.762C454.379 186.848 454.059 186.711 453.789 186.445C453.523 186.18 453.395 185.855 453.395 185.477C453.395 185.098 453.523 184.773 453.789 184.504C454.059 184.238 454.379 184.109 454.762 184.109H461.637V202.996H464.371V197.289C464.371 196.926 464.5 196.602 464.766 196.332ZM435.949 186.848H444.289V202.996H435.949V186.848ZM446.988 186.715C446.988 185.996 446.73 185.375 446.219 184.859C445.699 184.336 445.09 184.074 444.383 184.074H435.848C435.129 184.074 434.512 184.336 433.992 184.859C433.469 185.375 433.211 185.996 433.211 186.715V203.098C433.211 203.824 433.465 204.445 433.977 204.957C434.484 205.477 435.113 205.734 435.848 205.734H444.352C445.082 205.734 445.699 205.477 446.219 204.957C446.73 204.445 446.988 203.824 446.988 203.098V186.715ZM420.16 124.34H411.828V108.191H420.16V124.34ZM420.262 105.418H411.727C411.008 105.418 410.391 105.68 409.871 106.203C409.348 106.723 409.086 107.344 409.086 108.059V124.441C409.086 125.168 409.344 125.789 409.855 126.309C410.363 126.82 410.992 127.078 411.727 127.078H420.23C420.957 127.078 421.578 126.82 422.098 126.309C422.609 125.789 422.867 125.168 422.867 124.441V108.059C422.867 107.344 422.609 106.723 422.098 106.203C421.578 105.68 420.969 105.418 420.262 105.418ZM389.305 124.734C389.57 124.473 389.898 124.34 390.277 124.34H394.48V108.191H390.34C389.961 108.191 389.637 108.059 389.375 107.789C389.105 107.527 388.973 107.207 388.973 106.82C388.973 106.441 389.105 106.121 389.375 105.855C389.637 105.59 389.961 105.453 390.34 105.453H397.215V124.34H399.953V118.641C399.953 118.27 400.082 117.949 400.348 117.676C400.613 117.406 400.938 117.27 401.32 117.27C401.699 117.27 402.02 117.402 402.289 117.668C402.555 117.934 402.688 118.258 402.688 118.641V125.715C402.688 126.094 402.555 126.418 402.289 126.684C402.02 126.949 401.699 127.078 401.32 127.078H390.277C389.898 127.078 389.57 126.938 389.305 126.664C389.039 126.387 388.91 126.059 388.91 125.68C388.91 125.309 389.039 124.996 389.305 124.734ZM379.867 124.34H371.531V108.191H379.867V124.34ZM379.965 105.418H371.43C370.715 105.418 370.098 105.68 369.574 106.203C369.051 106.723 368.793 107.344 368.793 108.059V124.441C368.793 125.168 369.047 125.789 369.559 126.309C370.066 126.82 370.695 127.078 371.43 127.078H379.934C380.66 127.078 381.281 126.82 381.797 126.309C382.312 125.789 382.57 125.168 382.57 124.441V108.059C382.57 107.344 382.312 106.723 381.797 106.203C381.281 105.68 380.672 105.418 379.965 105.418ZM350.043 105.453H356.918V124.34H359.656V118.641C359.656 118.27 359.789 117.949 360.055 117.676C360.32 117.406 360.645 117.27 361.023 117.27C361.402 117.27 361.73 117.402 361.988 117.668C362.262 117.934 362.391 118.258 362.391 118.641V125.715C362.391 126.094 362.262 126.418 361.988 126.684C361.73 126.949 361.402 127.078 361.023 127.078H349.98C349.602 127.078 349.277 126.938 349.012 126.664C348.746 126.387 348.609 126.059 348.609 125.68C348.609 125.309 348.746 124.996 349.012 124.734C349.277 124.473 349.602 124.34 349.98 124.34H354.184V108.191H350.043C349.664 108.191 349.344 108.059 349.078 107.789C348.812 107.527 348.676 107.207 348.676 106.82C348.676 106.441 348.812 106.121 349.078 105.855C349.344 105.59 349.664 105.453 350.043 105.453ZM339.57 124.34H331.234V108.191H339.57V124.34ZM339.672 105.418H331.133C330.418 105.418 329.801 105.68 329.277 106.203C328.758 106.723 328.496 107.344 328.496 108.059V124.441C328.496 125.168 328.75 125.789 329.266 126.309C329.773 126.82 330.398 127.078 331.133 127.078H339.637C340.363 127.078 340.988 126.82 341.5 126.309C342.02 125.789 342.277 125.168 342.277 124.441V108.059C342.277 107.344 342.02 106.723 341.5 106.203C340.988 105.68 340.379 105.418 339.672 105.418ZM308.715 124.734C308.98 124.473 309.305 124.34 309.688 124.34H313.887V108.191H309.746C309.367 108.191 309.047 108.059 308.781 107.789C308.516 107.527 308.383 107.207 308.383 106.82C308.383 106.441 308.516 106.121 308.781 105.855C309.047 105.59 309.367 105.453 309.746 105.453H316.621V124.34H319.359V118.641C319.359 118.27 319.492 117.949 319.758 117.676C320.023 117.406 320.348 117.27 320.727 117.27C321.105 117.27 321.43 117.402 321.695 117.668C321.965 117.934 322.098 118.258 322.098 118.641V125.715C322.098 126.094 321.965 126.418 321.695 126.684C321.43 126.949 321.105 127.078 320.727 127.078H309.688C309.305 127.078 308.98 126.938 308.715 126.664C308.449 126.387 308.32 126.059 308.32 125.68C308.32 125.309 308.449 124.996 308.715 124.734ZM288.566 124.734C288.832 124.473 289.156 124.34 289.539 124.34H293.742V108.191H289.602C289.219 108.191 288.898 108.059 288.637 107.789C288.367 107.527 288.234 107.207 288.234 106.82C288.234 106.441 288.367 106.121 288.637 105.855C288.898 105.59 289.219 105.453 289.602 105.453H296.473V124.34H299.211V118.641C299.211 118.27 299.344 117.949 299.609 117.676C299.875 117.406 300.199 117.27 300.582 117.27C300.961 117.27 301.281 117.402 301.547 117.668C301.812 117.934 301.949 118.258 301.949 118.641V125.715C301.949 126.094 301.812 126.418 301.547 126.684C301.281 126.949 300.961 127.078 300.582 127.078H289.539C289.156 127.078 288.832 126.938 288.566 126.664C288.305 126.387 288.172 126.059 288.172 125.68C288.172 125.309 288.305 124.996 288.566 124.734ZM279.129 124.34H270.793V108.191H279.129V124.34ZM268.055 124.441C268.055 125.168 268.309 125.789 268.82 126.309C269.328 126.82 269.957 127.078 270.691 127.078H279.195C279.922 127.078 280.543 126.82 281.059 126.309C281.574 125.789 281.832 125.168 281.832 124.441V108.059C281.832 107.344 281.574 106.723 281.059 106.203C280.543 105.68 279.934 105.418 279.227 105.418H270.691C269.973 105.418 269.359 105.68 268.836 106.203C268.312 106.723 268.055 107.344 268.055 108.059V124.441ZM488.082 69.75H496.426V85.8984H488.082V69.75ZM487.988 88.6367H496.492C497.219 88.6367 497.836 88.3789 498.355 87.8594C498.871 87.3438 499.125 86.7227 499.125 85.9961V69.6133C499.125 68.8984 498.871 68.2773 498.355 67.7578C497.836 67.2383 497.227 66.9766 496.523 66.9766H487.988C487.27 66.9766 486.648 67.2383 486.133 67.7578C485.609 68.2773 485.348 68.8984 485.348 69.6133V85.9961C485.348 86.7227 485.605 87.3438 486.113 87.8594C486.625 88.3789 487.25 88.6367 487.988 88.6367ZM476.211 80.1914C476.211 79.8281 476.344 79.5039 476.613 79.2305C476.879 78.957 477.199 78.8242 477.578 78.8242C477.957 78.8242 478.281 78.9531 478.551 79.2266C478.812 79.4922 478.949 79.8125 478.949 80.1914V87.2656C478.949 87.6445 478.812 87.9688 478.551 88.2344C478.281 88.5 477.957 88.6367 477.578 88.6367H466.535C466.156 88.6367 465.836 88.4961 465.566 88.2188C465.305 87.9414 465.168 87.6172 465.168 87.2305C465.168 86.8672 465.305 86.5469 465.566 86.2891C465.836 86.0273 466.156 85.8984 466.535 85.8984H470.738V69.75H466.602C466.223 69.75 465.895 69.6133 465.633 69.3477C465.363 69.082 465.234 68.7578 465.234 68.3789C465.234 67.9961 465.363 67.6719 465.633 67.4062C465.895 67.1406 466.223 67.0078 466.602 67.0078H473.477V85.8984H476.211V80.1914ZM447.789 69.75H456.129V85.8984H447.789V69.75ZM447.691 88.6367H456.195C456.922 88.6367 457.543 88.3789 458.059 87.8594C458.578 87.3438 458.832 86.7227 458.832 85.9961V69.6133C458.832 68.8984 458.578 68.2773 458.059 67.7578C457.543 67.2383 456.93 66.9766 456.223 66.9766H447.691C446.977 66.9766 446.355 67.2383 445.836 67.7578C445.312 68.2773 445.055 68.8984 445.055 69.6133V85.9961C445.055 86.7227 445.309 87.3438 445.816 87.8594C446.332 88.3789 446.953 88.6367 447.691 88.6367ZM438.652 87.2656C438.652 87.6445 438.52 87.9688 438.254 88.2344C437.988 88.5 437.664 88.6367 437.281 88.6367H426.238C425.859 88.6367 425.539 88.4961 425.273 88.2188C425.008 87.9414 424.871 87.6172 424.871 87.2305C424.871 86.8672 425.008 86.5469 425.273 86.2891C425.539 86.0273 425.859 85.8984 426.238 85.8984H430.441V69.75H426.305C425.926 69.75 425.602 69.6133 425.336 69.3477C425.07 69.082 424.938 68.7578 424.938 68.3789C424.938 67.9961 425.07 67.6719 425.336 67.4062C425.602 67.1406 425.926 67.0078 426.305 67.0078H433.18V85.8984H435.914V80.1914C435.914 79.8281 436.051 79.5039 436.316 79.2305C436.582 78.957 436.902 78.8242 437.281 78.8242C437.664 78.8242 437.988 78.9531 438.254 79.2266C438.52 79.4922 438.652 79.8125 438.652 80.1914V87.2656ZM407.492 69.75H415.832V85.8984H407.492V69.75ZM417.762 67.7578C417.246 67.2383 416.637 66.9766 415.93 66.9766H407.398C406.68 66.9766 406.059 67.2383 405.535 67.7578C405.02 68.2773 404.758 68.8984 404.758 69.6133V85.9961C404.758 86.7227 405.012 87.3438 405.523 87.8594C406.035 88.3789 406.656 88.6367 407.398 88.6367H415.898C416.625 88.6367 417.246 88.3789 417.762 87.8594C418.281 87.3438 418.535 86.7227 418.535 85.9961V69.6133C418.535 68.8984 418.281 68.2773 417.762 67.7578ZM384.977 86.2891C385.242 86.0273 385.566 85.8984 385.945 85.8984H390.145V69.75H386.008C385.629 69.75 385.305 69.6133 385.039 69.3477C384.773 69.082 384.645 68.7578 384.645 68.3789C384.645 67.9961 384.773 67.6719 385.039 67.4062C385.305 67.1406 385.629 67.0078 386.008 67.0078H392.883V85.8984H395.617V80.1914C395.617 79.8281 395.754 79.5039 396.02 79.2305C396.285 78.957 396.605 78.8242 396.984 78.8242C397.367 78.8242 397.691 78.9531 397.957 79.2266C398.223 79.4922 398.359 79.8125 398.359 80.1914V87.2656C398.359 87.6445 398.223 87.9688 397.957 88.2344C397.691 88.5 397.367 88.6367 396.984 88.6367H385.945C385.566 88.6367 385.242 88.4961 384.977 88.2188C384.707 87.9414 384.578 87.6172 384.578 87.2305C384.578 86.8672 384.707 86.5469 384.977 86.2891ZM375.473 80.1914C375.473 79.8281 375.605 79.5039 375.871 79.2305C376.137 78.957 376.461 78.8242 376.84 78.8242C377.219 78.8242 377.543 78.9531 377.809 79.2266C378.074 79.4922 378.211 79.8125 378.211 80.1914V87.2656C378.211 87.6445 378.074 87.9688 377.809 88.2344C377.543 88.5 377.219 88.6367 376.84 88.6367H365.797C365.418 88.6367 365.09 88.4961 364.824 88.2188C364.566 87.9414 364.43 87.6172 364.43 87.2305C364.43 86.8672 364.566 86.5469 364.824 86.2891C365.09 86.0273 365.418 85.8984 365.797 85.8984H370V69.75H365.863C365.48 69.75 365.156 69.6133 364.895 69.3477C364.625 69.082 364.496 68.7578 364.496 68.3789C364.496 67.9961 364.625 67.6719 364.895 67.4062C365.156 67.1406 365.48 67.0078 365.863 67.0078H372.734V85.8984H375.473V80.1914ZM347.051 69.75H355.391V85.8984H347.051V69.75ZM357.32 67.7578C356.801 67.2383 356.191 66.9766 355.484 66.9766H346.953C346.234 66.9766 345.613 67.2383 345.094 67.7578C344.574 68.2773 344.312 68.8984 344.312 69.6133V85.9961C344.312 86.7227 344.57 87.3438 345.078 87.8594C345.59 88.3789 346.215 88.6367 346.953 88.6367H355.457C356.184 88.6367 356.801 88.3789 357.32 87.8594C357.832 87.3438 358.09 86.7227 358.09 85.9961V69.6133C358.09 68.8984 357.832 68.2773 357.32 67.7578ZM414.941 57.4922H406.605V41.3398H414.941V57.4922ZM403.867 57.5898C403.867 58.3203 404.121 58.9414 404.633 59.457C405.145 59.9766 405.77 60.2305 406.504 60.2305H415.008C415.734 60.2305 416.359 59.9766 416.871 59.457C417.387 58.9414 417.648 58.3203 417.648 57.5898V41.2109C417.648 40.4961 417.387 39.875 416.871 39.3516C416.359 38.832 415.746 38.5703 415.043 38.5703H406.504C405.789 38.5703 405.172 38.832 404.648 39.3516C404.129 39.875 403.867 40.4961 403.867 41.2109V57.5898ZM374.648 57.4922H366.309V41.3398H374.648V57.4922ZM363.57 57.5898C363.57 58.3203 363.828 58.9414 364.34 59.457C364.848 59.9766 365.473 60.2305 366.211 60.2305H374.711C375.441 60.2305 376.062 59.9766 376.574 59.457C377.094 58.9414 377.352 58.3203 377.352 57.5898V41.2109C377.352 40.4961 377.094 39.875 376.574 39.3516C376.062 38.832 375.453 38.5703 374.746 38.5703H366.211C365.492 38.5703 364.875 38.832 364.355 39.3516C363.832 39.875 363.57 40.4961 363.57 41.2109V57.5898ZM354.496 57.4922H346.164V41.3398H354.496V57.4922ZM343.422 57.5898C343.422 58.3203 343.68 58.9414 344.191 59.457C344.699 59.9766 345.328 60.2305 346.062 60.2305H354.566C355.293 60.2305 355.914 59.9766 356.43 59.457C356.945 58.9414 357.203 58.3203 357.203 57.5898V41.2109C357.203 40.4961 356.945 39.875 356.43 39.3516C355.914 38.832 355.305 38.5703 354.598 38.5703H346.062C345.344 38.5703 344.727 38.832 344.207 39.3516C343.684 39.875 343.422 40.4961 343.422 41.2109V57.5898ZM334.352 57.4922H326.016V41.3398H334.352V57.4922ZM324.059 39.3516C323.535 39.875 323.273 40.4961 323.273 41.2109V57.5898C323.273 58.3203 323.531 58.9414 324.039 59.457C324.555 59.9766 325.18 60.2305 325.914 60.2305H334.418C335.145 60.2305 335.766 59.9766 336.281 59.457C336.797 58.9414 337.059 58.3203 337.059 57.5898V41.2109C337.059 40.4961 336.797 39.875 336.281 39.3516C335.766 38.832 335.152 38.5703 334.449 38.5703H325.914C325.195 38.5703 324.578 38.832 324.059 39.3516ZM311.402 57.4922H314.141V51.7891C314.141 51.418 314.27 51.1016 314.539 50.8242C314.805 50.5547 315.129 50.4219 315.508 50.4219C315.887 50.4219 316.207 50.5508 316.473 50.8203C316.742 51.0859 316.875 51.4102 316.875 51.7891V58.8633C316.875 59.2422 316.742 59.5664 316.473 59.832C316.207 60.0977 315.887 60.2305 315.508 60.2305H304.465C304.086 60.2305 303.762 60.0938 303.496 59.8125C303.23 59.5391 303.094 59.207 303.094 58.8281C303.094 58.457 303.23 58.1445 303.496 57.8867C303.762 57.625 304.086 57.4922 304.465 57.4922H308.668V41.3398H304.527C304.148 41.3398 303.828 41.2109 303.562 40.9453C303.297 40.6758 303.16 40.3555 303.16 39.9766C303.16 39.5977 303.297 39.2695 303.562 39.0039C303.828 38.7383 304.148 38.6016 304.527 38.6016H311.402V57.4922ZM283.348 57.8867C283.613 57.625 283.934 57.4922 284.316 57.4922H288.52V41.3398H284.379C284 41.3398 283.68 41.2109 283.414 40.9453C283.148 40.6758 283.012 40.3555 283.012 39.9766C283.012 39.5977 283.148 39.2695 283.414 39.0039C283.68 38.7383 284 38.6016 284.379 38.6016H291.254V57.4922H293.988V51.7891C293.988 51.418 294.125 51.1016 294.391 50.8242C294.656 50.5547 294.98 50.4219 295.359 50.4219C295.738 50.4219 296.059 50.5508 296.328 50.8203C296.594 51.0859 296.727 51.4102 296.727 51.7891V58.8633C296.727 59.2422 296.594 59.5664 296.328 59.832C296.059 60.0977 295.738 60.2305 295.359 60.2305H284.316C283.934 60.2305 283.613 60.0938 283.348 59.8125C283.082 59.5391 282.945 59.207 282.945 58.8281C282.945 58.457 283.082 58.1445 283.348 57.8867ZM262.832 57.5898V48.6445C263.742 47.8867 264.656 47.1367 265.57 46.4023V57.4922H273.906V41.3398H272.043C273.129 40.5273 274.207 39.7227 275.297 38.9336C275.488 39.0508 275.672 39.1836 275.836 39.3516C276.355 39.875 276.613 40.4961 276.613 41.2109V57.5898C276.613 58.3203 276.355 58.9414 275.836 59.457C275.324 59.9766 274.699 60.2305 273.973 60.2305H265.469C264.73 60.2305 264.109 59.9766 263.598 59.457C263.086 58.9414 262.832 58.3203 262.832 57.5898Z" fill="#F8D831"/>
<path fill-rule="evenodd" clip-rule="evenodd" d="M422.809 305.676L422.43 312.203L368.574 329.996L366.887 324.504L363.805 367.066L354.945 367.348L355.621 361.078C355.852 360.035 355.172 359.02 354.234 359.02H225.398L218.023 301.141L188.656 333.582L144.199 307.855L143.676 299.188C143.523 296.621 145.406 294.383 147.957 294.102L151.125 293.754L207.609 219.383L292.09 187.18L374.809 214.887L392.094 250.75H400.309C401.016 250.75 401.625 251.012 402.145 251.535C402.656 252.055 402.918 252.672 402.918 253.391V269.773C402.918 270.492 402.66 271.109 402.156 271.625L415.617 299.562L419.43 300.766C421.543 301.434 422.938 303.457 422.809 305.676ZM287.219 297.234C295.621 297.234 302.43 303.012 302.43 310.129C302.43 317.25 295.621 323.023 287.219 323.023C278.82 323.023 272.012 317.25 272.012 310.129C272.012 303.012 278.82 297.234 287.219 297.234ZM400.215 267.598L393.43 253.523H400.215V267.598Z" fill="#F8D831"/>
<path d="M523.055 196.332C523.32 196.062 523.648 195.926 524.027 195.926C524.406 195.926 524.73 196.055 524.996 196.324C525.262 196.59 525.395 196.91 525.395 197.289V204.363C525.395 204.746 525.262 205.066 524.996 205.332C524.73 205.602 524.406 205.734 524.027 205.734H512.984C512.605 205.734 512.277 205.594 512.012 205.32C511.75 205.039 511.617 204.715 511.617 204.336C511.617 203.965 511.75 203.648 512.012 203.387C512.277 203.129 512.605 202.996 512.984 202.996H517.188V186.848H513.051C512.668 186.848 512.348 186.711 512.078 186.445C511.812 186.18 511.684 185.855 511.684 185.477C511.684 185.098 511.812 184.773 512.078 184.504C512.348 184.238 512.668 184.109 513.051 184.109H519.926V202.996H522.66V197.289C522.66 196.926 522.789 196.602 523.055 196.332Z" fill="#F8D831"/>
<path fill-rule="evenodd" clip-rule="evenodd" d="M504.508 184.859C505.02 185.375 505.277 185.996 505.277 186.715V203.098C505.277 203.824 505.02 204.445 504.508 204.957C503.988 205.477 503.371 205.734 502.641 205.734H494.137C493.402 205.734 492.773 205.477 492.266 204.957C491.754 204.445 491.5 203.824 491.5 203.098V186.715C491.5 185.996 491.758 185.375 492.281 184.859C492.801 184.336 493.418 184.074 494.137 184.074H502.672C503.379 184.074 503.988 184.336 504.508 184.859ZM494.238 186.848H502.578V202.996H494.238V186.848Z" fill="#F8D831"/>
<path fill-rule="evenodd" clip-rule="evenodd" d="M544.801 184.859C545.316 185.375 545.574 185.996 545.574 186.715V203.098C545.574 203.824 545.316 204.445 544.801 204.957C544.285 205.477 543.664 205.734 542.934 205.734H534.434C533.695 205.734 533.07 205.477 532.562 204.957C532.051 204.445 531.797 203.824 531.797 203.098V186.715C531.797 185.996 532.059 185.375 532.578 184.859C533.098 184.336 533.715 184.074 534.434 184.074H542.969C543.676 184.074 544.285 184.336 544.801 184.859ZM534.531 186.848H542.871V202.996H534.531V186.848Z" fill="#F8D831"/>
<path fill-rule="evenodd" clip-rule="evenodd" d="M385.348 59.457C384.836 58.9414 384.578 58.3203 384.578 57.5898V41.2109C384.578 40.4961 384.84 39.875 385.363 39.3516C385.883 38.832 386.5 38.5703 387.219 38.5703H395.754C396.461 38.5703 397.07 38.832 397.582 39.3516C398.102 39.875 398.359 40.4961 398.359 41.2109V57.5898C398.359 58.3203 398.102 58.9414 397.582 59.457C397.07 59.9766 396.449 60.2305 395.719 60.2305H387.219C386.48 60.2305 385.855 59.9766 385.348 59.457ZM395.656 57.4922H387.316V41.3398H395.656V57.4922Z" fill="#F8D831"/>
<path d="M214.07 152.168H204.129C203.34 152.168 202.703 151.531 202.703 150.742V149H215.5V150.742C215.5 151.531 214.859 152.168 214.07 152.168Z" fill="#F8D831"/>
<path d="M494.07 282.168H484.129C483.34 282.168 482.703 281.531 482.703 280.742V279H495.5V280.742C495.5 281.531 494.859 282.168 494.07 282.168Z" fill="#F8D831"/>
<path d="M313.504 181.809V195.516L320.129 200.668C320.129 200.668 297.457 225.633 289.262 225.633C281.121 225.633 258.832 202.645 258.832 202.645L266.379 197.195V183.355C263.125 179.992 261.074 175.52 260.828 169.93L260.227 155.234C255.836 155.637 248.77 143.008 252.555 137.051C254.699 133.684 257.434 135.949 259.559 138.875L258.793 120.152C258.504 113.617 263.723 108.164 270.258 108.164H308.281C314.813 108.164 320.027 113.617 319.742 120.152L318.773 143.801C320.215 139.832 323.594 132.16 326.703 137.051C330.703 143.344 322.586 157.09 318.316 155.039L317.707 169.93C317.496 174.703 315.965 178.656 313.504 181.809ZM185.496 331.754L147.906 310L131.602 333.586L131.57 333.582L125.164 343.066C118.934 352.301 128.57 372.953 139.648 374.098L238.863 376.625L239.391 371.504H210.609L209.688 361.973C209.352 360.477 210.332 359.02 211.672 359.02H240.68L242.125 344.996L180.426 338.629L185.496 331.754ZM412.281 374.992L354.879 367.969L355.621 361.078C355.852 360.035 355.172 359.02 354.234 359.02H313.941L315.176 331.172L375.625 333.855L372.785 328.605L416.406 314.195L430.086 344.195L431.152 346.422C435.969 356.469 423.402 375.484 412.281 374.992Z" fill="#DFC0B7"/>
<path d="M97.7422 337.227V340.863C97.7422 341.52 98.2734 342.051 98.9258 342.051C99.5781 342.051 100.109 341.52 100.109 340.863V337.227C100.109 336.57 99.5781 336.039 98.9258 336.039C98.2734 336.039 97.7422 336.57 97.7422 337.227ZM94.418 340.863V337.227C94.418 336.57 93.8867 336.039 93.2266 336.039C92.5742 336.039 92.043 336.57 92.043 337.227V340.863C92.043 341.52 92.5742 342.051 93.2266 342.051C93.8867 342.051 94.418 341.52 94.418 340.863ZM88.7227 340.863V337.227C88.7227 336.57 88.1914 336.039 87.5391 336.039C86.8789 336.039 86.3477 336.57 86.3477 337.227V340.863C86.3477 341.52 86.8789 342.051 87.5391 342.051C88.1914 342.051 88.7227 341.52 88.7227 340.863ZM83.0234 340.863V337.227C83.0234 336.57 82.4922 336.039 81.8398 336.039C81.1836 336.039 80.6562 336.57 80.6562 337.227V340.863C80.6562 341.52 81.1836 342.051 81.8398 342.051C82.4922 342.051 83.0234 341.52 83.0234 340.863ZM77.332 340.863V337.227C77.332 336.57 76.8047 336.039 76.1445 336.039C75.4922 336.039 74.9609 336.57 74.9609 337.227V340.863C74.9609 341.52 75.4922 342.051 76.1445 342.051C76.8047 342.051 77.332 341.52 77.332 340.863ZM71.6367 340.863V337.227C71.6367 336.57 71.1055 336.039 70.4492 336.039C69.793 336.039 69.2617 336.57 69.2617 337.227V340.863C69.2617 341.52 69.793 342.051 70.4492 342.051C71.1055 342.051 71.6367 341.52 71.6367 340.863ZM65.9414 340.863V337.227C65.9414 336.57 65.4102 336.039 64.7578 336.039C64.1016 336.039 63.5703 336.57 63.5703 337.227V340.863C63.5703 341.52 64.1016 342.051 64.7578 342.051C65.4102 342.051 65.9414 341.52 65.9414 340.863ZM60.2461 337.227C60.2461 336.57 59.7148 336.039 59.0586 336.039C58.4062 336.039 57.875 336.57 57.875 337.227V340.863C57.875 341.52 58.4062 342.051 59.0586 342.051C59.7148 342.051 60.2461 341.52 60.2461 340.863V337.227ZM61.0664 347.68H95.5859C96.2422 347.68 96.7734 347.145 96.7734 346.492C96.7734 345.836 96.2422 345.301 95.5859 345.301H61.0664C60.4102 345.301 59.8828 345.836 59.8828 346.492C59.8828 347.145 60.4102 347.68 61.0664 347.68ZM305.25 135.578C303.094 135.566 300.98 136.109 299.289 137.219C298.738 137.578 298.586 138.316 298.945 138.867C299.301 139.41 300.035 139.566 300.586 139.207C301.863 138.367 303.543 137.895 305.199 137.949C306.855 137.988 308.504 138.52 309.734 139.414C309.945 139.566 310.188 139.641 310.426 139.641C310.797 139.641 311.156 139.473 311.391 139.152C311.773 138.621 311.656 137.879 311.129 137.496C309.496 136.309 307.406 135.625 305.25 135.578ZM275.746 135.828C273.59 135.695 271.449 136.219 269.695 137.266C269.133 137.602 268.949 138.328 269.285 138.891C269.617 139.453 270.344 139.637 270.91 139.305C272.242 138.508 273.949 138.117 275.609 138.199C277.254 138.289 278.863 138.879 280.031 139.809C280.25 139.981 280.512 140.063 280.77 140.063C281.117 140.063 281.461 139.91 281.695 139.621C282.105 139.106 282.02 138.359 281.508 137.949C279.945 136.703 277.898 135.949 275.746 135.828ZM279.266 176.258C279.16 176.902 279.598 177.512 280.242 177.621C280.539 177.672 285.242 178.434 290.555 178.434C293.32 178.434 296.25 178.223 298.809 177.606C299.445 177.449 299.836 176.809 299.68 176.172C299.527 175.535 298.883 175.137 298.25 175.297C291.254 177 280.734 175.297 280.629 175.281C279.973 175.164 279.371 175.613 279.266 176.258ZM153.848 297.129C154.109 297.254 180.164 309.066 187.793 317.156C188.023 317.399 188.336 317.527 188.652 317.527C188.941 317.527 189.238 317.422 189.469 317.203C189.945 316.754 189.969 316.004 189.52 315.527C181.578 307.102 155.914 295.461 154.824 294.969C154.223 294.699 153.523 294.969 153.254 295.563C152.984 296.16 153.25 296.863 153.848 297.129ZM370.285 319.285C370.57 319.285 370.863 319.18 371.094 318.965C383.855 307.047 410.055 301.539 410.316 301.481C410.957 301.352 411.371 300.723 411.238 300.082C411.109 299.438 410.477 299.027 409.836 299.156C408.738 299.383 382.727 304.852 369.473 317.231C368.996 317.676 368.969 318.43 369.418 318.91C369.648 319.156 369.965 319.285 370.285 319.285ZM109.355 330.047H49.7383L54.0977 334.445H104.996L109.355 330.047ZM111.688 261.856C111.688 258.578 109.031 255.926 105.758 255.926C102.48 255.926 99.8281 258.578 99.8281 261.856V281.695H92.0547V250.352C92.0547 245.891 88.4414 242.266 83.9727 242.266H76.1953C71.7266 242.266 68.1133 245.891 68.1133 250.352V294.586H61.8477V274.742C61.8477 271.465 59.1953 268.809 55.918 268.809C52.6484 268.809 49.9883 271.465 49.9883 274.742V295.047C49.9883 301.336 55.1055 306.449 61.3906 306.449H68.1133V323.953H92.0547V293.566H100.285C106.57 293.566 111.688 288.445 111.688 282.156V261.856ZM497.609 327.66V351.52H501.211C501.824 351.52 502.371 351.129 502.578 350.551L505.969 340.969C507.363 337.043 507.578 332.824 506.59 328.77C506.434 328.117 505.852 327.66 505.184 327.66H497.609ZM497.609 321.731H505.184C508.594 321.731 511.543 324.047 512.352 327.363C513.613 332.543 513.336 337.938 511.559 342.957L508.168 352.535C507.121 355.477 504.328 357.453 501.211 357.453H497.609V370.367C497.609 372.707 495.711 374.606 493.375 374.606H458.578C456.238 374.606 454.344 372.707 454.344 370.367V318.441H497.609V321.731ZM302.43 310.129C302.43 303.012 295.621 297.234 287.219 297.234C278.82 297.234 272.012 303.012 272.012 310.129C272.012 317.25 278.82 323.024 287.219 323.024C295.621 323.024 302.43 317.25 302.43 310.129ZM356.23 253.313C356.73 239.695 361.801 229.219 362.035 228.754C362.32 228.164 363.031 227.922 363.625 228.211C364.207 228.5 364.453 229.211 364.164 229.801C364.105 229.91 359.125 240.231 358.605 253.313H363.066C366.176 253.313 368.672 255.891 368.566 259L365.293 358.113C365.195 361.086 362.762 363.441 359.789 363.441H210.164C207.191 363.441 204.762 361.086 204.66 358.113L201.387 259C201.285 255.891 203.777 253.313 206.891 253.313H215.133C215.441 247.016 211.117 237.5 211.074 237.402C210.801 236.805 211.055 236.102 211.652 235.828C212.25 235.555 212.953 235.816 213.227 236.41C213.418 236.832 217.781 246.43 217.508 253.313H283.203L282.906 231.926C282.875 229.828 284.004 227.883 285.848 226.867L287.883 225.746L274.875 219.465C272.469 218.246 270.359 216.922 268.562 218.734L262.395 224.93C261.238 226.09 259.262 225.297 259.227 223.66L258.797 202.856C258.363 199.223 266.379 183.473 266.379 183.473C266.379 183.473 270.27 209.172 288.441 225.438L292.383 223.266C310.109 208.902 313.504 181.852 313.504 181.852C313.504 181.852 320.531 197.031 320.129 200.668L321.301 219.313C321.406 220.965 319.539 221.996 318.199 221.031L316.68 219.941C313.766 217.84 309.445 217.356 305.855 218.715L295.32 223.027V253.313H356.23ZM569.703 374.871H365.668L366.598 367.32C366.871 366.277 366.086 365.262 365.008 365.262H200.992C199.449 365.262 198.328 366.719 198.715 368.215L199.449 374.871H96.8555L98.3867 371.277H59.2461L60.7812 374.871H25.9961C22.1406 374.871 19.0156 377.996 19.0156 381.852V391.305C19.0156 395.16 22.1406 398.285 25.9961 398.285H65.3281V431.293H528.852V398.285H569.703C573.551 398.285 576.676 395.16 576.676 391.305V381.852C576.676 377.996 573.551 374.871 569.703 374.871ZM293.445 167.137C296.016 166.207 292.332 158.984 290.434 155.606C290.02 154.867 289.008 154.938 288.703 155.719C287.438 158.992 284.949 165.59 284.973 166.891C285 168.637 290.082 168.363 293.445 167.137ZM276.551 144.844C275.336 144.844 274.352 146.352 274.352 148.211C274.352 150.074 275.336 151.582 276.551 151.582C277.766 151.582 278.75 150.074 278.75 148.211C278.75 146.352 277.766 144.844 276.551 144.844ZM304.207 144.844C302.992 144.844 302 146.352 302 148.211C302 150.074 302.992 151.582 304.207 151.582C305.418 151.582 306.402 150.074 306.402 148.211C306.402 146.352 305.418 144.844 304.207 144.844ZM288.395 205.703C292.547 206.969 309.898 189.524 313.188 182.215C308.574 187.809 300.891 190.695 292.211 190.695H286.324C278.754 190.695 271.945 188.504 267.262 184.234C273.133 191.121 284.984 204.656 288.395 205.703ZM263.922 180.266C263.922 180.266 263.949 180.297 263.996 180.356C263.973 180.324 263.961 180.293 263.938 180.266H263.922Z" fill="#141F35"/>
<path d="M313.66 124.301C316.062 123.684 318.383 125.566 318.266 128.051L317.672 140.727L317.666 144.008L317.66 147.289L320.027 145.508L323.984 135.582C324.461 135.43 324.938 135.453 325.418 135.723C329.98 118.328 329.387 105.047 324.281 96.8633C318.289 87.2579 305.223 91.5235 305.223 91.5235C305.223 91.5235 264.652 69.0079 251.48 103.727C247.766 113.516 250.652 126.426 253.828 135.719C254.613 135.238 255.441 135.305 256.262 135.707L260.258 145.723C260.359 145.977 260.543 146.18 260.762 146.305L260.512 139.957L260.43 129.938C260.398 126.234 263.848 123.481 267.449 124.344C276.812 126.594 291.211 130.109 291.211 130.109L313.66 124.301Z" fill="#141F35"/>
</g>
<defs>
<linearGradient id="paint0_linear_24_4" x1="-5.72052" y1="304.532" x2="594.351" y2="304.604" gradientUnits="userSpaceOnUse">
<stop stop-color="#205198"/>
<stop offset="1" stop-color="#4187ED"/>
</linearGradient>
<clipPath id="clip0_24_4">
<rect width="594" height="431" fill="white"/>
</clipPath>
</defs>
</svg>
